<svg xmlns="http://www.w3.org/2000/svg" viewBox="0 0 512 512" role="img" aria-label="wVRdr R3 icon">
  <rect width="512" height="512" rx="116" fill="#F6F1E8"/>
  <rect x="26" y="26" width="460" height="460" rx="96" fill="rgba(255,255,255,0.62)" stroke="#D9D2C5" stroke-width="6"/>
  <path d="M58 288 C92 250 116 326 146 288 C170 256 179 205 206 252 L237 311 L290 120 L335 250 L374 206 L452 206" fill="none" stroke="#2EEEF0" stroke-width="28" stroke-linecap="round" stroke-linejoin="round"/>
  <path d="M58 288 C92 250 116 326 146 288 C170 256 179 205 206 252 L237 311 L290 120 L335 250 L374 206 L452 206" fill="none" stroke="#7DE7F7" stroke-width="12" stroke-linecap="round" stroke-linejoin="round"/>
  <text x="98" y="398" font-family="Inter, Arial, sans-serif" font-size="86" font-weight="900" fill="#004225" letter-spacing="-10">R</text>
  <text x="164" y="398" font-family="Inter, Arial, sans-serif" font-size="86" font-weight="900" fill="#2A5DA8" letter-spacing="-10">d</text>
  <text x="230" y="398" font-family="Inter, Arial, sans-serif" font-size="86" font-weight="900" fill="#F7C600" letter-spacing="-10">r</text>
  <text x="292" y="398" font-family="Inter, Arial, sans-serif" font-size="58" font-weight="900" fill="#552583">R³</text>
</svg>
